PathFileType	4	(X/Y/Z)	\\Move.snu.ac.kr\motion\Animal\091204_091205_Bird\091205_bird\Project 2\Capture day 2\Session 1\pigeon_027.trc
DataRate	CameraRate	NumFrames	NumMarkers	Units	OrigDataRate	OrigDataStartFrame	OrigNumFrames
240.0	240.0	12	14	mm	240.0	1	2723
Frame#	Time	14MarkersBird:Head			14MarkersBird:C_back			14MarkersBird:Spine			14MarkersBird:L-shoulder			14MarkersBird:L-elbow			14MarkersBird:L-wrist			14MarkersBird:L-hand			14MarkersBird:R-shoulder			14MarkersBird:R-elbow			14MarkersBird:R-Wrist			14MarkersBird:R-hand			14MarkersBird:C_Tail			14MarkersBird:L-Tale			14MarkersBird:R-Tale			
		X1	Y1	Z1	X2	Y2	Z2	X3	Y3	Z3	X4	Y4	Z4	X5	Y5	Z5	X6	Y6	Z6	X7	Y7	Z7	X8	Y8	Z8	X9	Y9	Z9	X10	Y10	Z10	X11	Y11	Z11	X12	Y12	Z12	X13	Y13	Z13	X14	Y14	Z14	

1414	5.887	-1123.68774	1219.59851	306.80237	-1179.06689	1174.73022	314.24142	-1214.58276	1134.76318	314.26666	-1160.03772	1194.90540	286.69522	-1186.80505	1184.35779	272.22394	-1159.11072	1207.42859	243.29131	-1157.33398	1210.73010	213.43454	-1144.19666	1186.04163	334.69824	-1156.28088	1169.92786	357.65704	-1115.90869	1185.33655	362.32236	-1079.05005	1175.74585	372.84271	-1306.02051	1071.61853	327.84763	-1270.72180	1067.91602	254.30252	-1261.53101	1057.49707	383.98846	
1415	5.892	-1122.53394	1227.48645	306.56891	-1177.60071	1182.30945	312.96567	-1212.84973	1140.95093	314.83630	-1158.59607	1202.86829	286.75519	-1185.49915	1191.64514	272.03387	-1157.62903	1217.34436	246.32973	-1151.48767	1221.11658	217.41711	-1144.84302	1194.02954	333.96381	-1157.82458	1178.24390	357.07321	-1119.73633	1198.04553	358.42801	-1081.68323	1189.84607	366.60291	-1304.84607	1077.79041	322.98914	-1267.06201	1075.49402	252.22450	-1262.01782	1065.59961	382.32629	
1416	5.896	-1121.03552	1235.11157	306.35300	-1175.84167	1189.76941	311.81296	-1211.75696	1149.15869	315.29233	-1157.02979	1210.50293	286.75134	-1184.48340	1198.84558	272.86285	-1157.59216	1227.43457	249.90619	-1149.04492	1232.10510	222.94307	-1144.29663	1203.90613	334.70657	-1161.42957	1188.19678	355.87210	-1125.23755	1211.04065	355.58984	-1086.32349	1204.66687	363.54929	-1302.13501	1080.51965	317.23709	-1262.15759	1082.16064	249.12325	-1260.89941	1071.13562	380.33893	
1417	5.900	-1119.57214	1242.11316	306.26141	-1173.49719	1196.67212	311.18655	-1210.11072	1157.12207	315.07431	-1154.46741	1216.96655	286.32831	-1183.45313	1206.26367	275.39380	-1158.11902	1237.32141	254.64867	-1151.31104	1242.97705	227.71436	-1143.43848	1212.80029	334.57373	-1165.40442	1198.23645	352.71387	-1131.74902	1224.02661	353.42590	-1093.87378	1219.01563	365.83466	-1298.41431	1083.87207	313.63663	-1256.88171	1088.77771	246.59470	-1259.28320	1076.53821	378.73679	
1418	5.904	-1118.09412	1249.02722	306.14774	-1170.73547	1203.14526	310.45874	-1208.46912	1164.82141	314.89182	-1151.84045	1223.40112	285.77216	-1182.23499	1213.66846	277.98517	-1158.41650	1247.05518	259.30365	-1153.58105	1253.32825	232.13196	-1142.37854	1221.00354	333.80814	-1169.31360	1208.37756	349.65375	-1138.00061	1236.68066	350.66013	-1101.90503	1232.86658	367.83371	-1295.44275	1088.22888	310.81354	-1252.35510	1095.61646	244.43268	-1257.89099	1083.03040	377.80179	
1419	5.908	-1116.59546	1255.69641	306.04132	-1167.88892	1209.34802	309.71387	-1206.76660	1172.24231	314.58304	-1148.96130	1229.52454	284.91852	-1180.78552	1221.08130	280.98181	-1158.48914	1256.52625	264.02322	-1156.91357	1262.88342	236.18619	-1141.07971	1228.38684	332.35822	-1172.63806	1218.88037	345.17447	-1143.95007	1248.73767	347.16953	-1111.51416	1245.86804	370.21042	-1293.33569	1093.94922	309.58038	-1248.73730	1102.63879	242.84781	-1256.79187	1090.83496	377.71350	
1420	5.912	-1115.09094	1262.11145	305.94046	-1165.14209	1215.36279	308.98587	-1205.06726	1179.44434	314.10983	-1145.87695	1235.23206	283.74503	-1179.05896	1228.50134	284.35919	-1158.22046	1265.69141	268.71295	-1161.33777	1271.53076	240.31747	-1139.58044	1235.06848	330.42255	-1174.31848	1229.72852	339.56418	-1149.20471	1259.97803	342.84515	-1123.14673	1257.86365	372.23007	-1292.14099	1100.97607	310.12827	-1246.03699	1109.73022	241.86348	-1255.83252	1099.71362	378.45377	
1421	5.917	-1113.59680	1268.31287	305.81522	-1162.50610	1221.20251	308.27585	-1203.36182	1186.44885	313.52734	-1142.71582	1240.49719	282.35419	-1177.19238	1236.17908	287.61011	-1157.53076	1274.53455	273.19162	-1166.50488	1279.36218	245.22600	-1137.91943	1241.17139	328.20392	-1174.30652	1239.94849	332.83594	-1153.35144	1270.34021	337.77539	-1136.68579	1268.94019	372.64429	-1291.57751	1108.82495	312.18182	-1244.02600	1116.72363	241.35872	-1254.77161	1109.34021	379.99414	
1422	5.921	-1112.11035	1274.33936	305.62149	-1159.98291	1226.89661	307.58115	-1201.34998	1193.04651	312.99319	-1139.59741	1245.36353	280.93909	-1176.58887	1244.14600	288.81329	-1156.42212	1283.03320	277.24042	-1171.90942	1286.61523	251.48415	-1136.13562	1246.81689	325.90530	-1172.90649	1248.87573	325.47098	-1156.20093	1279.92810	332.31235	-1151.35364	1279.40784	370.30417	-1291.09070	1116.75671	315.17838	-1242.26355	1123.43762	241.11061	-1253.36389	1119.38538	382.30597	
1423	5.925	-1110.61035	1280.21667	305.31674	-1157.57458	1232.47632	306.89893	-1199.28052	1199.38977	312.49103	-1136.60645	1249.94482	279.67441	-1175.88391	1251.64734	289.58643	-1154.94299	1291.13745	280.52536	-1176.74573	1293.62708	259.08954	-1134.26770	1252.12756	323.72955	-1170.57080	1256.44946	318.22870	-1157.75903	1288.90698	326.98657	-1165.73279	1289.65442	364.56082	-1290.17053	1124.08679	318.45108	-1240.26917	1129.73352	240.87132	-1251.36389	1129.51953	385.36066	
1424	5.929	-1109.08081	1285.96094	304.89240	-1155.28308	1237.97180	306.22635	-1197.30164	1205.53784	312.00229	-1133.79614	1254.37317	278.64471	-1174.32263	1258.36145	290.47943	-1153.22510	1298.76501	282.52606	-1180.05188	1300.87952	267.22293	-1132.35449	1257.22510	321.87961	-1167.65759	1262.98975	311.58850	-1158.12354	1297.40100	322.49911	-1178.16809	1299.94690	355.76514	-1288.56958	1130.41602	321.40253	-1237.69604	1135.53003	240.44836	-1248.52966	1139.41785	389.13028	
1425	5.933	-1107.52148	1291.58374	304.39139	-1153.11023	1243.41406	305.56064	-1195.42432	1211.50793	311.51935	-1131.19458	1258.76306	277.85904	-1172.29749	1264.53723	291.27856	-1151.52344	1305.80371	282.61780	-1181.15833	1308.96973	274.29272	-1130.43494	1262.23169	320.55823	-1163.56274	1269.31738	306.80530	-1157.49756	1305.43555	319.78177	-1187.26575	1310.41956	345.59399	-1286.33923	1135.71716	323.60901	-1234.45569	1140.82129	239.78838	-1244.69714	1148.85986	393.57657	
